<?xml version="1.0" encoding="utf-8"?>
<!-- Generator: Adobe Illustrator 16.0.0, SVG Export Plug-In . SVG Version: 6.00 Build 0)  -->
<!DOCTYPE svg PUBLIC "-//W3C//DTD SVG 1.1//EN" "http://www.w3.org/Graphics/SVG/1.1/DTD/svg11.dtd">
<svg version="1.1" id="Layer_1" xmlns="http://www.w3.org/2000/svg" xmlns:xlink="http://www.w3.org/1999/xlink" x="0px" y="0px"
	 width="800px" height="800px" viewBox="0 0 800 800" enable-background="new 0 0 800 800" xml:space="preserve">
<g>
	<path d="M780.938,168.75c0-26.094-21.094-47.188-47.188-47.188H64.531c-26.094,0-47.188,21.094-47.188,47.188v462.5
		c0,26.094,21.094,47.188,47.188,47.188h670.781c26.094,0,47.188-21.094,45.625-48.906V168.75z M750,328.438H50V281.25h700V328.438z
		 M48.281,170.469c0-9.844,8.125-16.25,16.25-16.25v-1.563H733.75c9.844,0,16.25,8.125,16.25,16.25v81.406H48.281V170.469z
		 M750,631.25c0,9.844-8.125,16.25-16.25,16.25H64.531c-9.844,0-16.25-8.125-16.25-16.25V360.938H750V631.25z M262.5,416.25
		c0,8.422-6.828,15.25-15.25,15.25H94.75c-8.422,0-15.25-6.828-15.25-15.25l0,0c0-8.422,6.828-15.25,15.25-15.25h152.5
		C255.672,401,262.5,407.828,262.5,416.25L262.5,416.25z M471.5,416.25c0,8.422-6.828,15.25-15.25,15.25h-152.5
		c-8.422,0-15.25-6.828-15.25-15.25l0,0c0-8.422,6.828-15.25,15.25-15.25h152.5C464.672,401,471.5,407.828,471.5,416.25
		L471.5,416.25z M356.5,477.25c0,8.422-6.828,15.25-15.25,15.25H94.75c-8.422,0-15.25-6.828-15.25-15.25l0,0
		c0-8.422,6.828-15.25,15.25-15.25h246.5C349.672,462,356.5,468.828,356.5,477.25L356.5,477.25z M467.5,477
		c0,8.008-6.492,14.5-14.5,14.5h-67c-8.008,0-14.5-6.492-14.5-14.5l0,0c0-8.008,6.492-14.5,14.5-14.5h67
		C461.008,462.5,467.5,468.992,467.5,477L467.5,477z M704.5,609.5h-203v-121h203V609.5z"/>
</g>
<rect x="522.5" y="503.167" fill="#FF78BD" width="161" height="90.333"/>
</svg>
