<?xml version="1.0" encoding="utf-8"?>
<!-- Generator: Adobe Illustrator 16.0.0, SVG Export Plug-In . SVG Version: 6.00 Build 0)  -->
<!DOCTYPE svg PUBLIC "-//W3C//DTD SVG 1.1//EN" "http://www.w3.org/Graphics/SVG/1.1/DTD/svg11.dtd">
<svg version="1.1" id="Capa_1" xmlns="http://www.w3.org/2000/svg" xmlns:xlink="http://www.w3.org/1999/xlink" x="0px" y="0px"
	 width="800px" height="800px" viewBox="0 0 800 800" enable-background="new 0 0 800 800" xml:space="preserve">
<polygon fill="#FF78BD" points="400.147,209.833 436.833,282.811 527.073,294.581 463.61,361.28 479.991,449.167 400.149,405.224 
	320.697,449.167 337.175,362.85 271.261,296.935 363.07,285.165 "/>
<g>
	<g>
		<path d="M666,542.913l15.938-69.823l44.654-55.995c2.234-2.799,3.07-6.461,2.272-9.953l-15.94-69.822l15.938-69.825
			c0.798-3.492-0.038-7.155-2.272-9.953l-44.654-55.994l-15.938-69.825c-0.797-3.492-3.14-6.428-6.366-7.981l-64.526-31.077
			L550.446,36.67c-2.232-2.8-5.617-4.43-9.196-4.43h-71.621L405.103,1.164c-3.227-1.553-6.983-1.553-10.21,0l-64.527,31.075h-71.621
			c-3.58,0-6.965,1.629-9.198,4.43l-44.655,55.994l-64.525,31.077c-3.227,1.553-5.568,4.489-6.365,7.981l-15.938,69.825
			L73.408,257.54c-2.233,2.798-3.069,6.461-2.272,9.953l15.938,69.825l-15.938,69.824c-0.797,3.492,0.039,7.155,2.272,9.953
			l44.654,55.995L134,542.914c0.797,3.491,3.139,6.428,6.365,7.98l57.86,27.864l-79.582,119.733
			c-5.417,8.149,1.361,19.259,11.069,18.208l87.694-9.52l25.177,84.54c2.784,9.352,15.656,11.301,21.073,3.154l92.947-139.846
			l38.293,18.439c3.198,1.54,7.011,1.54,10.209,0l38.292-18.439l92.947,139.846c5.414,8.15,18.289,6.197,21.075-3.154l25.177-84.54
			l87.692,9.52c9.706,1.056,16.484-10.06,11.068-18.208l-79.583-119.733l57.859-27.865C662.86,549.342,665.203,546.405,666,542.913z
			 M257.963,760.933l-20.806-69.861c-1.621-5.443-6.888-8.969-12.545-8.337l-72.469,7.867l63.358-95.325l34.045,42.692
			c2.233,2.8,5.619,4.43,9.198,4.43h71.62l4.835,2.328L257.963,760.933z M647.852,690.597l-72.468-7.864
			c-5.653-0.623-10.925,2.896-12.545,8.338l-20.805,69.861l-77.238-116.208l4.833-2.328h71.621c3.579,0,6.964-1.63,9.196-4.43
			l34.047-42.692L647.852,690.597z M644.32,532.155l-61.843,29.783c-1.594,0.766-2.99,1.883-4.092,3.265l-42.797,53.665h-68.641
			c-1.768,0-3.513,0.398-5.105,1.166l-61.842,29.781l-61.843-29.781c-1.594-0.768-3.336-1.166-5.104-1.166h-68.639l-42.795-53.665
			c-1.103-1.382-2.501-2.499-4.094-3.265l-61.842-29.783l-15.273-66.917c-0.394-1.724-1.17-3.334-2.272-4.717l-42.795-53.668
			l15.273-66.918c0.392-1.724,0.392-3.513,0-5.236L95.342,267.78l42.795-53.666c1.103-1.381,1.878-2.994,2.272-4.717l15.273-66.919
			l61.842-29.783c1.592-0.766,2.992-1.883,4.094-3.264l42.795-53.666h68.639c1.768,0,3.513-0.398,5.104-1.166l61.843-29.781
			L461.843,54.6c1.593,0.767,3.336,1.166,5.105,1.166h68.641l42.797,53.666c1.102,1.381,2.5,2.498,4.092,3.264l61.843,29.783
			l15.273,66.919c0.392,1.723,1.169,3.334,2.271,4.717l42.796,53.666l-15.273,66.919c-0.395,1.722-0.395,3.512,0,5.236
			l15.273,66.918l-42.797,53.668c-1.102,1.383-1.879,2.993-2.271,4.717L644.32,532.155z"/>
	</g>
</g>
<g>
	<g>
		<path d="M599.021,165.769c-4.245-4.918-11.675-5.469-16.596-1.223c-4.918,4.245-5.467,11.672-1.222,16.594
			c37.411,43.364,58.013,98.83,58.013,156.18c0,131.906-107.313,239.22-239.219,239.22c-131.907,0-239.22-107.313-239.22-239.22
			S268.091,98.1,399.998,98.1c46.826,0,92.168,13.523,131.128,39.108c5.433,3.569,12.725,2.058,16.292-3.374
			c3.567-5.433,2.057-12.725-3.373-16.292C501.238,89.432,451.429,74.57,400.001,74.57c-144.88,0-262.749,117.871-262.749,262.749
			c0,144.879,117.869,262.749,262.749,262.749c144.878,0,262.749-117.87,262.749-262.749
			C662.748,274.329,640.115,213.405,599.021,165.769z"/>
	</g>
</g>
<g>
	<path d="M546.05,289.9c-0.962-2.945-3.486-5.049-6.553-5.53l-91.377-12.985l-41.119-82.66c-1.383-2.766-4.208-4.509-7.274-4.509
		l0,0c-3.065,0-5.892,1.743-7.274,4.569l-40.579,82.9l-91.377,13.587c-3.066,0.48-5.591,2.585-6.553,5.53
		c-0.961,2.945-0.12,6.191,2.104,8.296l66.308,64.265l-15.33,91.017c-0.541,3.065,0.721,6.132,3.247,7.936
		c1.382,1.021,3.066,1.563,4.749,1.563c1.322,0,2.585-0.301,3.787-0.962l81.578-43.224l81.818,42.743
		c1.202,0.601,2.465,0.901,3.728,0.901l0,0c4.448,0,8.115-3.667,8.115-8.115c0-0.662-0.06-1.263-0.24-1.864l-15.811-90.475
		l65.888-64.625C546.23,296.093,547.012,292.847,546.05,289.9z M463.69,354.286c-1.924,1.863-2.766,4.568-2.284,7.213l13.767,78.934
		l-71.058-37.092c-2.345-1.263-5.17-1.202-7.575,0l-70.817,37.513l13.286-79.054c0.421-2.645-0.421-5.29-2.345-7.153l-57.471-55.788
		l79.293-11.783c2.646-0.421,4.93-2.044,6.072-4.448l35.229-71.96l35.709,71.779c1.202,2.405,3.486,4.027,6.132,4.449l79.354,11.302
		L463.69,354.286z"/>
</g>
</svg>
