<?xml version="1.0" encoding="utf-8"?>
<!-- Generator: Adobe Illustrator 16.0.0, SVG Export Plug-In . SVG Version: 6.00 Build 0)  -->
<!DOCTYPE svg PUBLIC "-//W3C//DTD SVG 1.1//EN" "http://www.w3.org/Graphics/SVG/1.1/DTD/svg11.dtd">
<svg version="1.1" id="Capa_1" xmlns="http://www.w3.org/2000/svg" xmlns:xlink="http://www.w3.org/1999/xlink" x="0px" y="0px"
	 width="800px" height="800px" viewBox="0 0 800 800" enable-background="new 0 0 800 800" xml:space="preserve">
<polygon fill="#FF78BD" points="578.5,331.5 698.5,329 767,433.331 743,446.5 594,440 575.5,428 "/>
<g>
	<g>
		<path d="M186.667,526.667c-44.12,0-80,35.88-80,80s35.88,80,80,80c44.121,0,80-35.88,80-80S230.786,526.667,186.667,526.667z
			 M186.667,660c-29.414,0-53.333-23.92-53.333-53.333c0-29.414,23.92-53.333,53.333-53.333c29.413,0,53.333,23.921,53.333,53.333
			C240,636.08,216.08,660,186.667,660z"/>
	</g>
</g>
<g>
	<g>
		<path d="M640,526.667c-44.12,0-80,35.88-80,80s35.88,80,80,80s80-35.88,80-80S684.12,526.667,640,526.667z M640,660
			c-29.414,0-53.333-23.92-53.333-53.333c0-29.414,23.921-53.333,53.333-53.333c29.414,0,53.333,23.921,53.333,53.333
			C693.333,636.08,669.414,660,640,660z"/>
	</g>
</g>
<g>
	<g>
		<path d="M797.88,452.787l-120-186.667c-2.453-3.814-6.68-6.12-11.214-6.12H520c-7.373,0-13.333,5.974-13.333,13.333v333.333
			c0,7.373,5.96,13.332,13.333,13.332h53.333v-26.667h-40V286.667h126.053L773.333,463.92v129.414h-66.667V620h80
			c7.373,0,13.332-5.959,13.332-13.333V460C800,457.453,799.268,454.933,797.88,452.787z"/>
	</g>
</g>
<g>
	<g>
		<path d="M586.667,433.333V340h106.667v-26.667h-120c-7.373,0-13.332,5.973-13.332,13.333v120c0,7.373,5.959,13.332,13.332,13.332
			h200v-26.667H586.667V433.333z"/>
	</g>
</g>
<g>
	<g>
		<path d="M520,166.667H13.333C5.974,166.667,0,172.641,0,180v426.667C0,614.041,5.974,620,13.333,620H120v-26.667H26.667v-400h480
			v400H253.333V620H520c7.373,0,13.333-5.959,13.333-13.333V180C533.333,172.641,527.373,166.667,520,166.667z"/>
	</g>
</g>
<g>
	<g>
		<rect x="13.333" y="540" width="80" height="26.667"/>
	</g>
</g>
<g>
	<g>
		<rect x="280" y="540" width="226.667" height="26.667"/>
	</g>
</g>
<g>
	<g>
		<rect x="733.333" y="540" width="53.333" height="26.667"/>
	</g>
</g>
<g>
	<g>
		<rect x="53.333" y="220" width="466.667" height="26.667"/>
	</g>
</g>
<g>
	<g>
		<rect x="173.333" y="593.333" width="26.667" height="26.667"/>
	</g>
</g>
<g>
	<g>
		<rect x="626.667" y="593.333" width="26.667" height="26.667"/>
	</g>
</g>
<g>
	<g>
		<rect x="53.333" y="113.333" width="186.667" height="26.667"/>
	</g>
</g>
<g>
	<g>
		<rect y="113.333" width="26.667" height="26.667"/>
	</g>
</g>
</svg>
